<?xml version="1.0" encoding="UTF-8" standalone="no"?>
<svg width="40px" height="34px" viewBox="0 0 40 34" version="1.1" xmlns="http://www.w3.org/2000/svg" xmlns:xlink="http://www.w3.org/1999/xlink">
    <!-- Generator: Sketch 3.6.1 (26313) - http://www.bohemiancoding.com/sketch -->
    <title>Group 2</title>
    <desc>Created with Sketch.</desc>
    <defs></defs>
    <g id="General" stroke="none" stroke-width="1" fill="none" fill-rule="evenodd">
        <g id="Jump-Link-Copy-2" transform="translate(-1063.000000, -967.000000)">
            <g id="Group-2" transform="translate(1063.000000, 968.000000)">
                <g id="Layer_1-(2)-Copy-2" transform="translate(0.497580, 9.000000)" fill="#000000">
                    <g id="Layer_1">
                        <path d="M0,0 L0,23.8500004 L30.0048392,23.8500004 L30.0048392,0 L0,0 L0,0 Z M4.96926298,5.21930331 C4.96926298,3.98448877 5.97480977,2.97894198 7.20962431,2.97894198 C8.44443884,2.97894198 9.44998564,3.98448877 9.44998564,5.21930331 C9.44998564,6.45411785 8.44443884,7.45966464 7.20962431,7.45966464 C5.97480977,7.45966464 4.96926298,6.45411785 4.96926298,5.21930331 L4.96926298,5.21930331 Z M5.90249042,20.0032261 L13.9037809,10.3732115 L16.7550099,13.659126 L19.0007568,12.1481131 L24.1231214,20.0032261 L5.90249042,20.0032261 L5.90249042,20.0032261 Z" id="Shape"></path>
                    </g>
                </g>
                <path d="M4.25835715,5.48416739 L34.0528285,5.48416739 L34.0528285,29.2332247" id="Path-1455" stroke="#000000" stroke-width="2"></path>
                <path d="M8.8087661,0.968334777 L38.6032375,0.968334777 L38.6032375,24.7173921" id="Path-1455" stroke="#000000" stroke-width="2"></path>
            </g>
        </g>
    </g>
</svg>