<?xml version="1.0" encoding="utf-8"?>
<!-- Generator: Adobe Illustrator 17.1.0, SVG Export Plug-In . SVG Version: 6.00 Build 0)  -->
<!DOCTYPE svg PUBLIC "-//W3C//DTD SVG 1.1//EN" "http://www.w3.org/Graphics/SVG/1.1/DTD/svg11.dtd">
<svg version="1.1" id="Layer_1" xmlns="http://www.w3.org/2000/svg" xmlns:xlink="http://www.w3.org/1999/xlink" x="0px" y="0px"
	 viewBox="0 0 25 29" enable-background="new 0 0 25 29" xml:space="preserve">
<g>
	<polygon points="19,13 19,27 2,27 2,7 12,7 12,5 0,5 0,29 21,29 21,13 	"/>
	<polygon points="25,4 21,4 21,0 19,0 19,4 15,4 15,6 19,6 19,10 21,10 21,6 25,6 	"/>
	<polyline points="5,12 16,12 16,11 5,11 	"/>
	<polyline points="5,16 13,16 13,15 5,15 	"/>
</g>
</svg>
