
<svg width="18px" height="18px" viewBox="0 36 18 18" version="1.1" xmlns="http://www.w3.org/2000/svg" xmlns:xlink="http://www.w3.org/1999/xlink">
    <!-- Generator: Sketch 41 (35326) - http://www.bohemiancoding.com/sketch -->
    <desc>Created with Sketch.</desc>
    <defs></defs>
    <g id="Page-1" stroke="none" stroke-width="1" fill="none" fill-rule="evenodd" transform="translate(0.000000, 36.000000)">
        <path d="M9,1.79 C12.965,1.79 16.21,5.034 16.21,9 C16.21,12.965 12.965,16.209999 9,16.209999 C5.034,16.209999 1.789999,12.965 1.789999,9 C1.79,5.034 5.034,1.79 9,1.79 L9,1.79 Z M9,0.76 C4.467,0.76 0.76,4.467 0.76,9 C0.76,13.532 4.467,17.239 9,17.239 C13.532,17.239 17.239,13.532 17.239,9 C17.239,4.467 13.532,0.76 9,0.76 L9,0.76 L9,0.76 Z" id="Fill-1"></path>
        <polygon id="Fill-3" points="8.202 12.473 5.438 10.095 6.461 8.905 7.998 10.229 11.689 5.657 12.91 6.643"></polygon>
    </g>
</svg>