<?xml version="1.0" encoding="utf-8"?>
<!-- Generator: Adobe Illustrator 17.1.0, SVG Export Plug-In . SVG Version: 6.00 Build 0)  -->
<!DOCTYPE svg PUBLIC "-//W3C//DTD SVG 1.1//EN" "http://www.w3.org/Graphics/SVG/1.1/DTD/svg11.dtd">
<svg version="1.1" id="Layer_1" xmlns="http://www.w3.org/2000/svg" xmlns:xlink="http://www.w3.org/1999/xlink" x="0px" y="0px"
	 viewBox="0 0 12.684 22.139" enable-background="new 0 0 12.684 22.139" xml:space="preserve">
<g>
	<path d="M4.34,15.902v-0.811c0-1.961,0.588-4.004,2.491-5.6C8.147,8.398,8.96,7.643,8.96,6.383c0-2.156-1.624-2.66-2.633-2.66
		c-2.184,0-2.436,1.625-2.604,2.744H0C0.504,0,6.104,0,6.439,0c3.22,0,6.244,2.324,6.244,6.383c0,1.316-0.308,2.771-2.828,5.096
		c-0.952,0.812-1.792,1.568-1.792,3.473v0.951H4.34z M4.34,18.416h3.724v3.723H4.34V18.416z"/>
</g>
</svg>
