<?xml version="1.0" encoding="utf-8"?>
<!-- Generator: Adobe Illustrator 18.1.1, SVG Export Plug-In . SVG Version: 6.00 Build 0)  -->
<svg version="1.1" id="Layer_1" xmlns="http://www.w3.org/2000/svg" xmlns:xlink="http://www.w3.org/1999/xlink" x="0px" y="0px"
	 viewBox="0 0 960 560" enable-background="new 0 0 960 560" xml:space="preserve">
<g>
	<path d="M428.4,494.3V352.3c13.7-0.5,26.9-1.1,40.1-2.1c-4.7-11.1-9.5-22.2-15.3-32.7c-7.9,1.1-16.3,1.1-24.8,1.6v-29.5
		c-18.5,4.2-38.5,7.4-59.1,9.5v195.2c0,43.3-20,54.9-32.2,62.8h123.4C448.9,549.1,428.4,537.5,428.4,494.3"/>
	<path d="M715.4,556.5c-10-9.5-22.7-24.3-29-53.3c-11.7-53.3-35.9-129.7-87.1-186.7C649.4,289,680,245.8,680,192.5
		c0.5-38-19-78.1-53.8-101.8c-14.8-9.5-32.2-16.3-52.7-20.6c7.4,15.9,12.1,32.7,13.2,49.6c21.6,16.9,33.2,42.7,33.2,73.8
		c0,39.6-20.1,86-90.2,109.7c5.8,11.1,11.6,22.7,16.4,33.8c3.7-1.1,7.4-2.1,11.1-3.2c32.7,38,59.1,97.6,67,153
		c5.8,40.1-8.4,60.1-17.9,69.6H715.4"/>
	<path d="M592.4,492.7c-10.6-9.5-23.2-24.3-29-53.3c-11.6-53.3-34.8-128.2-81.2-181.4c2.1-1.1,3.7-1.6,5.8-2.7
		c52.7-26.9,84.9-71.7,84.9-126.6c0.5-38.5-19-78.1-53.8-101.8C491.7,8.4,454.7,1,407.8,1H230c12.1,7.9,32.2,19.5,32.2,62.8v366.1
		c0,43.8-20,54.9-32.2,62.8h123.4c-11.6-7.9-32.2-19-32.2-62.8V288c43.3,0,83.9-5.3,118.2-14.3c31.1,37.5,54.4,95.5,61.7,148.8
		c5.3,40.1-8.4,60.7-17.9,70.1C483.2,492.7,592.4,492.7,592.4,492.7z M321.3,255.3V33.7h83.9c30.6,0.5,53.3,6.9,71.2,19.5
		c23.7,16.8,36.4,43.8,36.4,76C512.8,183.5,475.3,252.7,321.3,255.3"/>
	<path d="M428.4,223.6v-125h66.5c-4.7-13.7-13.2-24.8-24.8-33.2h-133c12.2,7.9,32.2,19,32.2,62.8v110.3
		C391.4,235.2,411.5,230.5,428.4,223.6"/>
</g>
</svg>
