
<svg width="28px" height="31px" viewBox="40 281 28 31" version="1.1" xmlns="http://www.w3.org/2000/svg" xmlns:xlink="http://www.w3.org/1999/xlink">
    <!-- Generator: Sketch 41 (35326) - http://www.bohemiancoding.com/sketch -->
    <desc>Created with Sketch.</desc>
    <defs></defs>
    <g id="Group-5" stroke="none" stroke-width="1" fill="none" fill-rule="evenodd" transform="translate(40.000000, 281.000000)">
        <g id="Group-4-Copy">
            <path d="M0.0929375,24.2093517 L21.8679375,24.2093517 L21.8679375,0.0223516739 L0.0929375,0.0223516739 L0.0929375,24.2093517 Z M2.0929375,2.02235167 L19.8679375,2.02235167 L19.8679375,22.2093517 L15.7998543,22.2093517 L2.0929375,22.2093517 L2.0929375,2.02235167 Z" id="Fill-1" fill="#999999"></path>
            <polygon id="Fill-5" fill="#999999" points="5.5789375 7.20935167 16.5789375 7.20935167 16.5789375 6.20935167 5.5789375 6.20935167"></polygon>
            <polygon id="Fill-6" fill="#999999" points="5.5789375 11.2093517 13.5789375 11.2093517 13.5789375 10.2083517 5.5789375 10.2083517"></polygon>
            <g id="Group-3" transform="translate(10.867938, 13.209352)">
                <ellipse id="Oval-18" stroke="#979797" stroke-width="2" fill="#000000" cx="8.275" cy="7.74669841" rx="7.5" ry="7.5"></ellipse>
                <polygon id="Path-133" fill="#979797" points="7.775 7.74669841 7.775 8.24669842 8.27500001 8.24669841 11.275 8.24669834 11.275 7.24669834 8.27499999 7.24669841 8.775 7.74669841 8.775 3.74669841 7.775 3.74669841"></polygon>
            </g>
        </g>
    </g>
</svg>