
<svg width="48px" height="12px" viewBox="-1 113 48 12" version="1.1" xmlns="http://www.w3.org/2000/svg" xmlns:xlink="http://www.w3.org/1999/xlink">
    <!-- Generator: Sketch 41 (35326) - http://www.bohemiancoding.com/sketch -->
    <desc>Created with Sketch.</desc>
    <defs></defs>
    <g id="Page-1" stroke="none" stroke-width="1" fill="none" fill-rule="evenodd" transform="translate(0.000000, 114.000000)">
        <path d="M46.75125,2.025139 C46.3480404,2.202624 45.9202564,2.318924 45.48225,2.370139 C45.9437732,2.095424 46.2891225,1.663674 46.4541429,1.155139 C46.0202657,1.412319 45.544995,1.593304 45.0491786,1.690139 C44.4273182,1.035864 43.4669571,0.823428997 42.62418,1.153739 C41.7814532,1.484044 41.2261146,2.290539 41.2220357,3.190139 C41.2220357,3.358314 41.2406175,3.525984 41.2774286,3.690139 C39.4979079,3.601324 37.8397982,2.767259 36.7150714,1.395139 C36.5176714,1.730444 36.4134321,2.111754 36.4129286,2.500139 C36.3969654,3.237464 36.7592346,3.932379 37.37475,4.345139 C37.0263793,4.307679 36.6863175,4.214824 36.3676071,4.070139 L36.3676071,4.100139 C36.3761175,5.150949 37.1271439,6.051174 38.1653571,6.255139 C37.9786832,6.308154 37.7854629,6.335084 37.5912857,6.335139 C37.4526525,6.334959 37.3143718,6.321564 37.1783571,6.295139 C37.4702271,7.189629 38.3012207,7.801949 39.2480357,7.820139 C38.4658382,8.431259 37.4988804,8.762454 36.5035714,8.760139 C36.3352779,8.759429 36.1671857,8.749414 36,8.730139 C37.9392032,9.944954 40.3902868,10.016704 42.3981771,8.917434 C44.4060675,7.818164 45.6531621,5.721774 45.6534643,3.445139 L45.6534643,3.160139 C46.0877443,2.848174 46.4628546,2.462194 46.7613214,2.020139" id="Fill-1" fill="#000000"></path>
        <path d="M5.03571429,7.86 C4.94187375,7.939725 4.82180218,7.982435 4.69832143,7.98 C4.57746429,7.98 4.55228571,7.94 4.45157143,7.86 L0,4 L0,9.19 L9.65346429,9.19 L9.67864286,4 L5.03571429,7.86 Z" id="Fill-4" fill="#000000"></path>
        <polyline id="Fill-5" fill="#000000" points="9.64339286 3 4.89471429 6.925 -1.77635684e-15 3"></polyline>
        <path d="M23.525,10.5080743 L23.525,6.0080743 L25.1263571,6.0080743 L25.3731071,4.0080743 L23.525,4.0080743 L23.525,2.6880743 C23.525,2.1430743 23.6408214,2.0080743 24.4314286,2.0080743 L25.5392857,2.0080743 L25.5392857,0.0830742981 C25.0357143,0.0830742981 24.7083929,0.00807429807 24.0285714,0.00807429807 C23.3448524,-0.0487407019 22.6706357,0.196344298 22.1854799,0.678059298 C21.7003291,1.1597693 21.4534935,1.8292043 21.5107143,2.5080743 L21.5107143,4.0080743 L20,4.0080743 L20,6.0080743 L21.5107143,6.0080743 L21.5107143,10.5080743 L23.525,10.5080743 Z" id="Fill-7" fill="#000000"></path>
    </g>
</svg>