<?xml version="1.0" encoding="utf-8"?>
<!-- Generator: Adobe Illustrator 17.1.0, SVG Export Plug-In . SVG Version: 6.00 Build 0)  -->
<!DOCTYPE svg PUBLIC "-//W3C//DTD SVG 1.1//EN" "http://www.w3.org/Graphics/SVG/1.1/DTD/svg11.dtd">
<svg version="1.1" id="Layer_1" xmlns="http://www.w3.org/2000/svg" xmlns:xlink="http://www.w3.org/1999/xlink" x="0px" y="0px"
	 viewBox="0 0 46.109 33.741" enable-background="new 0 0 46.109 33.741" xml:space="preserve">
<g>
	<g>
		<path fill="#CCCCCC" d="M16.652,2.936c3.221,0,6.251,1.059,8.762,3.063c1.92,1.533,3.214,3.142,4.069,5.064l0.192,0.431
			l0.37,0.291c3.443,2.708,6.486,4.516,8.949,5.696c-2.573,1.134-5.833,2.991-9.597,6.032l-0.286,0.231l-0.179,0.321
			c-0.932,1.67-2.27,3.082-4.21,4.445c-2.371,1.665-5.161,2.545-8.07,2.545c-7.753,0-14.06-6.307-14.06-14.06
			S8.899,2.936,16.652,2.936 M16.652,1.033c-8.816,0-15.964,7.147-15.964,15.964c0,8.816,7.147,15.964,15.964,15.964
			c3.41,0,6.571-1.069,9.164-2.891c1.966-1.381,3.601-2.967,4.778-5.074c8.763-7.079,14.489-7.388,14.731-7.388
			c-0.24,0-5.584-0.616-14.103-7.317c-1.049-2.355-2.631-4.189-4.621-5.778C23.873,2.334,20.415,1.033,16.652,1.033z"/>
	</g>
	<polygon fill="#CCCCCC" points="23,15 18,15 18,10 15,10 15,15 10,15 10,18 15,18 15,23 18,23 18,18 23,18 	"/>
</g>
</svg>
