<svg id="Layer_1" data-name="Layer 1" xmlns="http://www.w3.org/2000/svg" viewBox="0 0 32 32"><defs><style>.cls-2{fill:#979797;}</style></defs><title>Untitled-1</title><path class="cls-2" d="M87.58-27H83.34a1.5,1.5,0,0,1-1.5-1.5v-2.28a12.67,12.67,0,0,1-2.46-1l-1.62,1.62a1.49,1.49,0,0,1-1.06.44h0a1.49,1.49,0,0,1-1.06-.44l-3-3a1.5,1.5,0,0,1,0-2.12l1.62-1.62a12.67,12.67,0,0,1-1-2.46H71a1.5,1.5,0,0,1-1.5-1.5v-4.24a1.5,1.5,0,0,1,1.5-1.5h2.28a12.67,12.67,0,0,1,1-2.46l-1.62-1.62a1.5,1.5,0,0,1,0-2.12l3-3a1.49,1.49,0,0,1,1.06-.44h0a1.49,1.49,0,0,1,1.06.44l1.62,1.62a12.67,12.67,0,0,1,2.46-1v-2.28a1.5,1.5,0,0,1,1.5-1.5h4.24a1.5,1.5,0,0,1,1.5,1.5v2.28a12.64,12.64,0,0,1,2.46,1l1.62-1.62a1.5,1.5,0,0,1,2.12,0l3,3a1.5,1.5,0,0,1,0,2.12L96.66-49.1a12.64,12.64,0,0,1,1,2.46H100a1.5,1.5,0,0,1,1.5,1.5v4.24a1.5,1.5,0,0,1-1.5,1.5H97.68a12.64,12.64,0,0,1-1,2.46l1.62,1.62a1.5,1.5,0,0,1,0,2.12l-3,3a1.5,1.5,0,0,1-2.12,0l-1.62-1.62a12.64,12.64,0,0,1-2.46,1v2.28A1.5,1.5,0,0,1,87.58-27Zm-3.74-2h3.24v-3.35l0.78-.18a10.65,10.65,0,0,0,3.31-1.37l0.68-.42L94.21-32l2.29-2.29-2.37-2.37,0.42-.68a10.64,10.64,0,0,0,1.37-3.31l0.18-.78h3.35v-3.24H96.11l-0.18-.78a10.64,10.64,0,0,0-1.37-3.31l-0.42-.68,2.37-2.37-2.29-2.29L91.84-51.7l-0.68-.42a10.65,10.65,0,0,0-3.31-1.37l-0.78-.18V-57H83.84v3.35l-0.78.18a10.66,10.66,0,0,0-3.31,1.37l-0.68.42-2.37-2.37-2.29,2.29,2.37,2.37-0.42.68A10.66,10.66,0,0,0,75-45.42l-0.18.78H71.46v3.24h3.35L75-40.63a10.66,10.66,0,0,0,1.37,3.31l0.42,0.68-2.37,2.37L76.71-32l2.37-2.37,0.68,0.42a10.66,10.66,0,0,0,3.31,1.37l0.78,0.18V-29Z" transform="translate(-69.46 59.03)"/><path class="cls-2" d="M85.44-35.71A7.32,7.32,0,0,1,78.12-43a7.32,7.32,0,0,1,7.32-7.32A7.32,7.32,0,0,1,92.75-43,7.32,7.32,0,0,1,85.44-35.71Zm0-12.63A5.32,5.32,0,0,0,80.12-43a5.32,5.32,0,0,0,5.32,5.32A5.32,5.32,0,0,0,90.75-43,5.32,5.32,0,0,0,85.44-48.34Z" transform="translate(-69.46 59.03)"/></svg>